# xmcd
#
# Track frame offsets:
#	150
#	18682
#	35270
#	52267
#	69302
#	86930
#	102852
#	120295
#	139450
#	156927
#	182337
# Disc length: 2771 seconds
# Revision: 1
# Processed by: cddbd v1.5.2PL0 Copyright (c) Steve Scherf et al.
#
# Submitted via: libkcddb 0.31
#
DISCID=940ad10b
DTITLE=Boizinho Barrica - Estrela Amante
DYEAR=1900
DGENRE=
TTITLE0=Brandão - Qua Qua Qua
TTITLE1=Inácio - Preces de Amor
TTITLE2=Brandão - Coco de Paixão
TTITLE3=Brandão - Linda Estrela
TTITLE4=Inácio - Beleza de Lua
TTITLE5=Brandão - Namorada
TTITLE6=Inácio - Linda Vaqueirada
TTITLE7=Inácio - Régia
TTITLE8=Brandão - Madre Deus
TTITLE9=Brandão-Inácio - Estrela da Aurora - Festejar
TTITLE10=Inácio - Andrômeda
EXTD=
EXTT0=Zé Pereira Godão
EXTT1=Luis Bulcão
EXTT2=Zé Pereira Godão
EXTT3=Luis Bulcão-Zé Pereira Godão
EXTT4=Luis Bulcão
EXTT5=Luis Bulcão
EXTT6=Luis Bulcão
EXTT7=Zé Pereira Godão
EXTT8=Luis Bulcão
EXTT9=Zé Pereira Godão
EXTT10=Zé Pereira Godão
PLAYORDER=
